<?xml version="1.0" encoding="utf-8"?>
<!-- Generator: Adobe Illustrator 16.0.4, SVG Export Plug-In . SVG Version: 6.00 Build 0)  -->
<!DOCTYPE svg PUBLIC "-//W3C//DTD SVG 1.1//EN" "http://www.w3.org/Graphics/SVG/1.1/DTD/svg11.dtd">
<svg version="1.1" id="Capa_1" xmlns="http://www.w3.org/2000/svg" xmlns:xlink="http://www.w3.org/1999/xlink" x="0px" y="0px"
	 width="891.251px" height="2023.555px" viewBox="0 0 891.251 2023.555" enable-background="new 0 0 891.251 2023.555"
	 xml:space="preserve">
<g>
	<g>
		<path fill="#D9DADE" d="M532.394,814.592c-83.418,0-151.041-67.628-151.041-151.043s67.623-151.042,151.041-151.042
			c83.422,0,151.042,67.626,151.042,151.042S615.816,814.592,532.394,814.592z"/>
		<path fill="#D9DADE" d="M602.265,800.502c0-34.525-27.985-62.5-62.499-62.5h-14.74c-34.517,0-62.502,27.975-62.502,62.5v1066.203
			c0,34.514,27.985,62.5,62.502,62.5h14.74c34.514,0,62.499-27.986,62.499-62.5V800.502z"/>
	</g>
	<g>
		<path fill="#5C5C60" d="M120.163,1019.836v-10.807h45.571v10.807H120.163z"/>
		<path fill="#5C5C60" d="M233.05,1028.169v21.354h-16.927v-21.354h-35.806v-10.676l35.545-56.508h17.188v53.253h10.155v13.932
			H233.05z M216.124,1014.237v-32.42l-20.702,32.42H216.124z"/>
		<path fill="#5C5C60" d="M254.796,1004.993c0-25.129,6.771-45.311,31.509-45.311c25.78,0,31.9,20.963,31.9,45.311
			c0,25.52-6.901,45.832-31.9,45.832C260.786,1050.825,254.796,1030.773,254.796,1004.993z M300.498,1004.993
			c0-20.312-3.516-31.509-14.192-31.509s-13.802,11.458-13.802,31.509c0,20.312,3.125,32.16,13.802,32.16
			C297.502,1037.153,300.498,1025.174,300.498,1004.993z"/>
		<path fill="#5C5C60" d="M381.356,985.202c0,18.619-10.416,26.431-26.171,26.431c-15.624,0-26.171-7.682-26.171-26.431
			c0-15.625,9.896-25.52,26.171-25.52C371.2,959.682,381.356,969.578,381.356,985.202z M364.169,985.332
			c0-10.156-4.427-13.28-8.984-13.28c-4.817,0-9.114,3.255-9.114,13.28c0,9.635,4.297,13.802,9.114,13.802
			C359.873,999.134,364.169,995.358,364.169,985.332z"/>
	</g>
	<g>
		<path fill="#5C5C60" d="M120.163,1570.188v-10.807h45.571v10.807H120.163z"/>
		<path fill="#5C5C60" d="M225.368,1551.698c9.245,3.906,17.578,9.506,17.578,22.525c0,14.584-11.198,26.953-31.249,26.953
			c-18.749,0-30.468-10.938-30.468-25.781c0-9.504,7.161-16.275,17.187-20.051c-8.333-4.166-15.233-10.156-15.233-22.395
			c0-15.365,13.541-22.916,28.515-22.916c15.885,0,29.165,8.594,29.165,22.135C240.862,1541.413,233.832,1547.532,225.368,1551.698z
			 M207.53,1559.12c-5.858,4.297-9.114,9.506-9.114,15.104c0,9.766,7.031,14.453,13.281,14.453c7.031,0,13.802-4.557,13.802-14.453
			C225.499,1565.629,216.905,1562.635,207.53,1559.12z M216.384,1548.313c4.557-4.035,7.421-8.463,7.421-14.713
			c0-7.16-5.729-10.676-12.108-10.676c-5.859,0-11.588,3.645-11.588,10.154C200.109,1541.672,207.791,1545.059,216.384,1548.313z"/>
		<path fill="#5C5C60" d="M254.796,1555.344c0-25.129,6.771-45.311,31.509-45.311c25.78,0,31.9,20.963,31.9,45.311
			c0,25.52-6.901,45.832-31.9,45.832C260.786,1601.176,254.796,1581.125,254.796,1555.344z M300.498,1555.344
			c0-20.312-3.516-31.51-14.192-31.51s-13.802,11.459-13.802,31.51c0,20.312,3.125,32.16,13.802,32.16
			C297.502,1587.504,300.498,1575.526,300.498,1555.344z"/>
		<path fill="#5C5C60" d="M381.356,1535.553c0,18.619-10.416,26.432-26.171,26.432c-15.624,0-26.171-7.682-26.171-26.432
			c0-15.625,9.896-25.52,26.171-25.52C371.2,1510.034,381.356,1519.928,381.356,1535.553z M364.169,1535.684
			c0-10.156-4.427-13.281-8.984-13.281c-4.817,0-9.114,3.256-9.114,13.281c0,9.635,4.297,13.801,9.114,13.801
			C359.873,1549.485,364.169,1545.709,364.169,1535.684z"/>
	</g>
	<g>
		<path fill="#5C5C60" d="M45.685,1834.073v-10.807h45.571v10.807H45.685z"/>
		<path fill="#5C5C60" d="M116.777,1863.758v-12.889h17.057v-44.01c0-3.906,0.131-7.422,0.651-12.5
			c-4.558,5.859-14.452,9.896-21.224,10.938l-2.083-13.41c11.067-2.734,20.702-8.984,26.432-16.666h13.15v75.648h16.015v12.889
			H116.777z"/>
		<path fill="#5C5C60" d="M180.319,1819.229c0-25.129,6.771-45.311,31.509-45.311c25.78,0,31.9,20.963,31.9,45.311
			c0,25.52-6.901,45.832-31.9,45.832C186.308,1865.061,180.319,1845.01,180.319,1819.229z M226.02,1819.229
			c0-20.311-3.516-31.51-14.192-31.51s-13.802,11.459-13.802,31.51c0,20.312,3.125,32.16,13.802,32.16
			C223.025,1851.389,226.02,1839.411,226.02,1819.229z"/>
		<path fill="#5C5C60" d="M254.797,1819.229c0-25.129,6.771-45.311,31.509-45.311c25.78,0,31.9,20.963,31.9,45.311
			c0,25.52-6.901,45.832-31.9,45.832C260.787,1865.061,254.797,1845.01,254.797,1819.229z M300.499,1819.229
			c0-20.311-3.516-31.51-14.192-31.51s-13.802,11.459-13.802,31.51c0,20.312,3.125,32.16,13.802,32.16
			C297.503,1851.389,300.499,1839.411,300.499,1819.229z"/>
		<path fill="#5C5C60" d="M381.357,1799.438c0,18.619-10.416,26.432-26.171,26.432c-15.624,0-26.171-7.682-26.171-26.432
			c0-15.623,9.896-25.52,26.171-25.52C371.201,1773.918,381.357,1783.815,381.357,1799.438z M364.17,1799.569
			c0-10.156-4.427-13.281-8.984-13.281c-4.817,0-9.114,3.256-9.114,13.281c0,9.635,4.297,13.801,9.114,13.801
			C359.874,1813.37,364.17,1809.594,364.17,1799.569z"/>
	</g>
	<g>
		<path fill="#5C5C60" d="M120.163,1295.88v-10.807h45.571v10.807H120.163z"/>
		<path fill="#5C5C60" d="M197.375,1275.701c4.817-7.162,12.76-10.027,20.832-10.027c14.844,0,25.13,11.068,25.13,28.516
			c0,17.967-11.719,32.682-30.989,32.682c-18.358,0-31.639-14.324-31.639-47.395c0-28.775,16.535-43.748,35.676-43.748
			c8.854,0,14.973,1.301,20.572,3.125l-2.865,13.15c-3.906-1.562-9.374-2.996-16.535-2.996
			C205.317,1249.007,199.458,1259.425,197.375,1275.701z M197.765,1289.242c1.432,17.447,7.161,24.348,14.582,24.348
			c9.114,0,13.672-7.291,13.672-18.229c0-10.287-4.688-16.406-13.281-16.406C205.708,1278.955,199.718,1282.861,197.765,1289.242z"
			/>
		<path fill="#5C5C60" d="M254.796,1281.039c0-25.129,6.771-45.311,31.509-45.311c25.78,0,31.9,20.963,31.9,45.311
			c0,25.52-6.901,45.832-31.9,45.832C260.786,1326.871,254.796,1306.818,254.796,1281.039z M300.498,1281.039
			c0-20.312-3.516-31.51-14.192-31.51s-13.802,11.459-13.802,31.51c0,20.311,3.125,32.16,13.802,32.16
			C297.502,1313.199,300.498,1301.22,300.498,1281.039z"/>
		<path fill="#5C5C60" d="M381.356,1261.248c0,18.619-10.416,26.432-26.171,26.432c-15.624,0-26.171-7.684-26.171-26.432
			c0-15.625,9.896-25.52,26.171-25.52C371.2,1235.728,381.356,1245.623,381.356,1261.248z M364.169,1261.376
			c0-10.154-4.427-13.279-8.984-13.279c-4.817,0-9.114,3.254-9.114,13.279c0,9.637,4.297,13.803,9.114,13.803
			C359.873,1275.179,364.169,1271.404,364.169,1261.376z"/>
	</g>
	<path fill="#25326A" d="M532.394,767.539c-58.649,0-106.194-47.546-106.194-106.19c0-58.656,47.545-106.203,106.194-106.203
		c58.655,0,106.198,47.547,106.198,106.203C638.592,719.993,591.049,767.539,532.394,767.539z"/>
	<path fill="#25326A" d="M558.482,762.67c0-27.057-11.938-48.986-26.668-48.986h-6.296c-14.73,0-26.667,21.929-26.667,48.986
		v835.533c0,27.057,11.937,48.984,26.667,48.984h6.296c14.73,0,26.668-21.928,26.668-48.984V762.67z"/>
	<g>
		<g>
			<line fill="none" stroke="#434141" stroke-miterlimit="10" x1="532.394" y1="811.236" x2="602.265" y2="811.236"/>
			<line fill="none" stroke="#434141" stroke-miterlimit="10" x1="532.394" y1="907.59" x2="555.389" y2="907.59"/>
			<line fill="none" stroke="#434141" stroke-miterlimit="10" x1="532.394" y1="1015.23" x2="602.265" y2="1015.23"/>
		</g>
		<g>
			<line fill="none" stroke="#434141" stroke-miterlimit="10" x1="532.394" y1="1074.256" x2="602.265" y2="1074.256"/>
			<line fill="none" stroke="#434141" stroke-miterlimit="10" x1="532.394" y1="1170.613" x2="555.389" y2="1170.613"/>
			<line fill="none" stroke="#434141" stroke-miterlimit="10" x1="532.394" y1="1278.257" x2="602.265" y2="1278.257"/>
		</g>
		<g>
			<line fill="none" stroke="#434141" stroke-miterlimit="10" x1="532.394" y1="1348.572" x2="602.265" y2="1348.572"/>
			<line fill="none" stroke="#434141" stroke-miterlimit="10" x1="532.394" y1="1444.931" x2="555.389" y2="1444.931"/>
			<line fill="none" stroke="#434141" stroke-miterlimit="10" x1="532.394" y1="1552.579" x2="602.265" y2="1552.579"/>
		</g>
		<g>
			<line fill="none" stroke="#434141" stroke-miterlimit="10" x1="532.394" y1="1661.954" x2="602.265" y2="1661.954"/>
			<line fill="none" stroke="#434141" stroke-miterlimit="10" x1="532.394" y1="1758.311" x2="555.389" y2="1758.311"/>
			<line fill="none" stroke="#434141" stroke-miterlimit="10" x1="532.394" y1="1865.952" x2="602.265" y2="1865.952"/>
		</g>
	</g>
</g>
<g>
	<path fill="#737278" d="M557.524,418.429c-8.167,4.375-27.417,12.542-49.001,12.542c-42.584,0-68.251-24.208-68.251-74.376
		c0-46.667,25.667-74.376,67.959-74.376c18.959,0,35.292,3.792,49.001,11.667l-9.917,25.958c-10.208-6.125-23.334-8.75-35.875-8.75
		c-19.834,0-32.376,13.417-32.376,45.501c0,32.375,11.958,45.5,32.667,45.5c14.875,0,29.459-5.542,38.793-10.792L557.524,418.429z"
		/>
	<path fill="#737278" d="M646.26,338c0,26.068-14.584,37.006-36.642,37.006c-21.876,0-36.642-10.755-36.642-37.006
		c0-21.875,13.854-35.73,36.642-35.73C632.042,302.27,646.26,316.124,646.26,338z M622.197,338.182
		c0-14.219-6.198-18.594-12.578-18.594c-6.745,0-12.761,4.557-12.761,18.594c0,13.49,6.016,19.323,12.761,19.323
		C616.181,357.505,622.197,352.219,622.197,338.182z"/>
</g>
</svg>
