<?xml version="1.0" encoding="utf-8"?>
<!-- Generator: Adobe Illustrator 16.0.4, SVG Export Plug-In . SVG Version: 6.00 Build 0)  -->
<!DOCTYPE svg PUBLIC "-//W3C//DTD SVG 1.1//EN" "http://www.w3.org/Graphics/SVG/1.1/DTD/svg11.dtd">
<svg version="1.1" id="Capa_1" xmlns="http://www.w3.org/2000/svg" xmlns:xlink="http://www.w3.org/1999/xlink" x="0px" y="0px"
	 width="891.251px" height="1927.155px" viewBox="0 0 891.251 1927.155" enable-background="new 0 0 891.251 1927.155"
	 xml:space="preserve">
<g>
	<path fill="#737278" d="M531.103,1787.075c-8.167,4.375-27.417,12.542-49.001,12.542c-42.584,0-68.251-24.208-68.251-74.376
		c0-46.667,25.667-74.376,67.959-74.376c18.959,0,35.292,3.792,49.001,11.667l-9.917,25.958c-10.208-6.125-23.334-8.75-35.875-8.75
		c-19.834,0-32.376,13.417-32.376,45.501c0,32.375,11.958,45.5,32.667,45.5c14.875,0,29.459-5.542,38.793-10.792L531.103,1787.075z"
		/>
	<path fill="#737278" d="M619.839,1706.645c0,26.068-14.584,37.006-36.642,37.006c-21.876,0-36.642-10.755-36.642-37.006
		c0-21.875,13.854-35.73,36.642-35.73C605.621,1670.915,619.839,1684.77,619.839,1706.645z M595.776,1706.828
		c0-14.219-6.198-18.594-12.578-18.594c-6.745,0-12.761,4.557-12.761,18.594c0,13.49,6.016,19.323,12.761,19.323
		C589.76,1726.151,595.776,1720.864,595.776,1706.828z"/>
</g>
<g>
	<g>
		<path fill="#5C5C60" d="M99.984,248.484v-12.89h17.057v-44.009c0-3.906,0.131-7.421,0.651-12.5
			c-4.558,5.859-14.452,9.896-21.224,10.937l-2.083-13.411c11.067-2.734,20.702-8.984,26.432-16.666h13.15v75.648h16.015v12.89
			H99.984z"/>
		<path fill="#5C5C60" d="M163.526,203.955c0-25.129,6.771-45.311,31.509-45.311c25.78,0,31.9,20.963,31.9,45.311
			c0,25.52-6.901,45.832-31.9,45.832C169.516,249.786,163.526,229.734,163.526,203.955z M209.228,203.955
			c0-20.312-3.516-31.509-14.192-31.509s-13.802,11.458-13.802,31.509c0,20.312,3.125,32.16,13.802,32.16
			C206.232,236.115,209.228,224.136,209.228,203.955z"/>
		<path fill="#5C5C60" d="M238.005,203.955c0-25.129,6.771-45.311,31.509-45.311c25.78,0,31.9,20.963,31.9,45.311
			c0,25.52-6.901,45.832-31.9,45.832C243.994,249.786,238.005,229.734,238.005,203.955z M283.706,203.955
			c0-20.312-3.516-31.509-14.192-31.509s-13.802,11.458-13.802,31.509c0,20.312,3.125,32.16,13.802,32.16
			C280.711,236.115,283.706,224.136,283.706,203.955z"/>
		<path fill="#5C5C60" d="M364.564,184.164c0,18.619-10.416,26.431-26.171,26.431c-15.624,0-26.171-7.682-26.171-26.431
			c0-15.625,9.896-25.52,26.171-25.52C354.408,158.644,364.564,168.539,364.564,184.164z M347.378,184.293
			c0-10.156-4.427-13.28-8.984-13.28c-4.817,0-9.114,3.255-9.114,13.28c0,9.635,4.297,13.802,9.114,13.802
			C343.081,198.095,347.378,194.319,347.378,184.293z"/>
	</g>
	<g>
		<path fill="#5C5C60" d="M208.576,476.354c9.245,3.906,17.578,9.505,17.578,22.525c0,14.583-11.198,26.952-31.249,26.952
			c-18.749,0-30.468-10.938-30.468-25.78c0-9.505,7.161-16.275,17.187-20.051c-8.333-4.167-15.233-10.156-15.233-22.395
			c0-15.364,13.541-22.916,28.515-22.916c15.885,0,29.165,8.594,29.165,22.135C224.07,466.067,217.04,472.187,208.576,476.354z
			 M190.738,483.775c-5.858,4.296-9.114,9.505-9.114,15.104c0,9.765,7.031,14.453,13.281,14.453c7.031,0,13.802-4.557,13.802-14.453
			C208.707,490.285,200.113,487.291,190.738,483.775z M199.593,472.968c4.557-4.036,7.421-8.463,7.421-14.713
			c0-7.161-5.729-10.677-12.108-10.677c-5.859,0-11.588,3.646-11.588,10.156C183.317,466.328,190.999,469.713,199.593,472.968z"/>
		<path fill="#5C5C60" d="M238.005,480c0-25.129,6.771-45.311,31.509-45.311c25.78,0,31.9,20.963,31.9,45.311
			c0,25.52-6.901,45.832-31.9,45.832C243.994,525.831,238.005,505.779,238.005,480z M283.706,480
			c0-20.312-3.516-31.509-14.192-31.509S255.712,459.948,255.712,480c0,20.312,3.125,32.16,13.802,32.16
			C280.711,512.16,283.706,500.181,283.706,480z"/>
		<path fill="#5C5C60" d="M364.564,460.208c0,18.619-10.416,26.431-26.171,26.431c-15.624,0-26.171-7.682-26.171-26.431
			c0-15.625,9.896-25.52,26.171-25.52C354.408,434.688,364.564,444.584,364.564,460.208z M347.378,460.338
			c0-10.156-4.427-13.28-8.984-13.28c-4.817,0-9.114,3.255-9.114,13.28c0,9.635,4.297,13.802,9.114,13.802
			C343.081,474.14,347.378,470.364,347.378,460.338z"/>
	</g>
	<g>
		<path fill="#D9DADE" d="M666.644,1361.163c0,83.418-67.62,151.042-151.042,151.042c-83.418,0-151.041-67.624-151.041-151.042
			c0-83.417,67.623-151.042,151.041-151.042C599.023,1210.121,666.644,1277.746,666.644,1361.163z"/>
		<path fill="#D9DADE" d="M585.473,158.034c0-34.518-27.985-62.5-62.499-62.5h-14.74c-34.517,0-62.502,27.982-62.502,62.5v1066.181
			c0,34.518,27.985,62.5,62.502,62.5h14.74c34.514,0,62.499-27.982,62.499-62.5V158.034z"/>
	</g>
	<g>
		<path fill="#E00914" d="M622.877,1365.075c0,58.65-47.54,106.197-106.195,106.197c-58.651,0-106.197-47.547-106.197-106.197
			s47.546-106.196,106.197-106.196C575.337,1258.878,622.877,1306.425,622.877,1365.075z"/>
		<path fill="#E00914" d="M542.77,557.936c0-23.083-11.939-41.797-26.668-41.797h-6.298c-14.729,0-26.667,18.713-26.667,41.797
			v712.997c0,23.086,11.938,41.8,26.667,41.8h6.298c14.729,0,26.668-18.714,26.668-41.8V557.936z"/>
	</g>
	<g>
		<g>
			<line fill="none" stroke="#434141" stroke-miterlimit="10" x1="445.731" y1="158.635" x2="515.602" y2="158.635"/>
			<line fill="none" stroke="#434141" stroke-miterlimit="10" x1="445.731" y1="254.989" x2="468.727" y2="254.989"/>
			<line fill="none" stroke="#434141" stroke-miterlimit="10" x1="445.731" y1="362.63" x2="515.602" y2="362.63"/>
		</g>
		<g>
			<line fill="none" stroke="#434141" stroke-miterlimit="10" x1="445.731" y1="421.657" x2="515.602" y2="421.657"/>
			<line fill="none" stroke="#434141" stroke-miterlimit="10" x1="445.731" y1="518.011" x2="468.727" y2="518.011"/>
			<line fill="none" stroke="#434141" stroke-miterlimit="10" x1="445.731" y1="625.652" x2="515.602" y2="625.652"/>
		</g>
		<g>
			<line fill="none" stroke="#434141" stroke-miterlimit="10" x1="445.731" y1="695.965" x2="515.602" y2="695.965"/>
			<line fill="none" stroke="#434141" stroke-miterlimit="10" x1="445.731" y1="792.319" x2="468.727" y2="792.319"/>
			<line fill="none" stroke="#434141" stroke-miterlimit="10" x1="445.731" y1="899.96" x2="515.602" y2="899.96"/>
		</g>
		<g>
			<line fill="none" stroke="#434141" stroke-miterlimit="10" x1="445.731" y1="1009.33" x2="515.602" y2="1009.33"/>
			<line fill="none" stroke="#434141" stroke-miterlimit="10" x1="445.731" y1="1105.684" x2="468.727" y2="1105.684"/>
			<line fill="none" stroke="#434141" stroke-miterlimit="10" x1="445.731" y1="1213.326" x2="515.602" y2="1213.326"/>
		</g>
	</g>
	<g>
		<path fill="#5C5C60" d="M180.583,748.968c4.817-7.161,12.76-10.026,20.832-10.026c14.844,0,25.13,11.067,25.13,28.515
			c0,17.968-11.719,32.681-30.988,32.681c-18.359,0-31.64-14.323-31.64-47.394c0-28.775,16.535-43.749,35.676-43.749
			c8.854,0,14.973,1.302,20.572,3.125l-2.865,13.15c-3.906-1.562-9.374-2.995-16.535-2.995
			C188.525,722.276,182.666,732.693,180.583,748.968z M180.974,762.509c1.432,17.447,7.161,24.348,14.583,24.348
			c9.113,0,13.671-7.292,13.671-18.229c0-10.286-4.688-16.406-13.281-16.406C188.916,752.223,182.927,756.129,180.974,762.509z"/>
		<path fill="#5C5C60" d="M238.005,754.307c0-25.129,6.771-45.311,31.509-45.311c25.78,0,31.9,20.963,31.9,45.311
			c0,25.52-6.901,45.832-31.9,45.832C243.994,800.138,238.005,780.086,238.005,754.307z M283.706,754.307
			c0-20.312-3.516-31.509-14.192-31.509s-13.802,11.458-13.802,31.509c0,20.312,3.125,32.16,13.802,32.16
			C280.711,786.467,283.706,774.488,283.706,754.307z"/>
		<path fill="#5C5C60" d="M364.564,734.516c0,18.619-10.416,26.431-26.171,26.431c-15.624,0-26.171-7.682-26.171-26.431
			c0-15.625,9.896-25.52,26.171-25.52C354.408,708.996,364.564,718.891,364.564,734.516z M347.378,734.646
			c0-10.156-4.427-13.28-8.984-13.28c-4.817,0-9.114,3.255-9.114,13.28c0,9.635,4.297,13.802,9.114,13.802
			C343.081,748.447,347.378,744.671,347.378,734.646z"/>
	</g>
	<g>
		<path fill="#5C5C60" d="M216.259,1041.368v21.354h-16.927v-21.354h-35.806v-10.676l35.545-56.508h17.188v53.253h10.155v13.932
			H216.259z M199.332,1027.436v-32.42l-20.702,32.42H199.332z"/>
		<path fill="#5C5C60" d="M238.005,1018.192c0-25.129,6.771-45.311,31.509-45.311c25.78,0,31.9,20.963,31.9,45.311
			c0,25.52-6.901,45.832-31.9,45.832C243.994,1064.023,238.005,1043.972,238.005,1018.192z M283.706,1018.192
			c0-20.312-3.516-31.509-14.192-31.509s-13.802,11.458-13.802,31.509c0,20.312,3.125,32.16,13.802,32.16
			C280.711,1050.352,283.706,1038.373,283.706,1018.192z"/>
		<path fill="#5C5C60" d="M364.564,998.401c0,18.619-10.416,26.431-26.171,26.431c-15.624,0-26.171-7.682-26.171-26.431
			c0-15.625,9.896-25.52,26.171-25.52C354.408,972.881,364.564,982.776,364.564,998.401z M347.378,998.531
			c0-10.156-4.427-13.28-8.984-13.28c-4.817,0-9.114,3.255-9.114,13.28c0,9.635,4.297,13.802,9.114,13.802
			C343.081,1012.333,347.378,1008.557,347.378,998.531z"/>
	</g>
</g>
</svg>
