<?xml version="1.0" encoding="UTF-8" standalone="no"?>
<svg
   xmlns:dc="http://purl.org/dc/elements/1.1/"
   xmlns:cc="http://creativecommons.org/ns#"
   xmlns:rdf="http://www.w3.org/1999/02/22-rdf-syntax-ns#"
   xmlns:svg="http://www.w3.org/2000/svg"
   xmlns="http://www.w3.org/2000/svg"
   xmlns:xlink="http://www.w3.org/1999/xlink"
   xmlns:sodipodi="http://sodipodi.sourceforge.net/DTD/sodipodi-0.dtd"
   xmlns:inkscape="http://www.inkscape.org/namespaces/inkscape"
   width="100%"
   height="100%"
   id="svg2"
   version="1.1"
   inkscape:version="0.91 r13725"
   sodipodi:docname="brujula-amarillo2.svg">
  <metadata
     id="metadata47">
    <rdf:RDF>
      <cc:Work
         rdf:about="">
        <dc:format>image/svg+xml</dc:format>
        <dc:type
           rdf:resource="http://purl.org/dc/dcmitype/StillImage" />
        <dc:title>brujula amarillo</dc:title>
      </cc:Work>
    </rdf:RDF>
  </metadata>
  <defs
     id="defs45" />
  <sodipodi:namedview
     pagecolor="#ffffff"
     bordercolor="#666666"
     borderopacity="1"
     objecttolerance="10"
     gridtolerance="10"
     guidetolerance="10"
     inkscape:pageopacity="0"
     inkscape:pageshadow="2"
     inkscape:window-width="1366"
     inkscape:window-height="746"
     id="namedview43"
     showgrid="false"
     inkscape:zoom="1"
     inkscape:cx="356.7369"
     inkscape:cy="-162.37891"
     inkscape:window-x="-8"
     inkscape:window-y="-8"
     inkscape:window-maximized="1"
     inkscape:current-layer="g3513" />
  <title
     id="title4">brujula amarillo</title>
  <g
     id="g3513"
     transform="translate(220,11)">
    <g
       id="g3558">
      <path
         d="m 251.97501,156.127 c -0.56301,-12.399 -2.42299,-24.91299 -7.197,-36.455 -4.51,-10.901 -11.374,-21.289996 -19.61801,-29.722003 -8.44899,-8.642998 -17.834,-15.792 -28.90199,-20.723 C 185.106,64.254997 173.21501,60.998001 160.994,60.298 137.99602,58.976001 114.552,66.672996 96.494011,80.904998 79.306007,94.454002 66.991997,113.968 62.160011,135.309 c -5.254002,23.208 -1.352001,49.00699 11.054001,69.39899 3.115997,5.121 6.338997,10.19 10.442001,14.58602 4.046997,4.33499 8.359993,8.54199 13.019997,12.21598 9.294,7.32701 19.907,12.86901 31.227,16.32502 22.448,6.85399 46.991,5.19999 68.29999,-4.64601 19.68601,-9.101 36.86301,-25.545 46.14601,-45.224 2.95501,-6.265 5.043,-12.93801 6.741,-19.64 1.86499,-7.35199 2.54199,-14.637 2.88499,-22.198"
         id="svg_1"
         inkscape:connector-curvature="0"
         style="fill:#848484" />
      <path
         d="m 251.735,155.88699 c 0,23.233 -8.58501,46.131 -23.95,63.581 -7.752,8.806 -17.63099,16.91501 -28.209,22.027 -11.043,5.34002 -22.752,8.88901 -34.971,10.09301 -23.866,2.35499 -48.578,-4.97701 -67.474003,-19.73999 C 79.999001,218.45799 66.945,198.48299 62.414002,177.159 59.908001,165.366 59.057999,152.245 61.244,140.337 63.393002,128.627 67.387002,116.681 73.71,106.563 79.936997,96.599998 87.629998,87.308998 97.105004,80.277999 101.869,76.744002 106.879,73.47 112.055,70.570998 c 5.317,-2.978996 11.15,-4.839996 16.973,-6.57 23.094,-6.860001 49.12,-4.695 70.478,6.580002 5.162,2.726997 10.322,5.723999 14.955,9.294998 4.65201,3.584 8.96899,7.976997 12.91,12.32 7.904,8.709002 13.82,18.538002 17.948,29.526002 3.52201,9.386 6.27201,19.84599 6.413,29.942 0.018,1.295 0.02,2.592 -0.004,3.888 -0.014,0.707 -5.258,0.338 -6.11701,0.338 -5.96699,0 -11.93399,0 -17.89999,0 -23.931,0 -47.85899,0 -71.79199,0 31.94099,-0.003 63.875,-0.003 95.81599,-0.003"
         id="svg_2"
         inkscape:connector-curvature="0"
         style="fill:#848484" />
      <path
         d="m 227.714,156.127 c -0.77101,11.95 -2.854,23.48801 -8.541,34.15201 -5.238,9.82998 -13.354,18.40599 -22.389,24.88299 -4.719,3.381 -10.012,5.847 -15.36699,8.043 -5.56201,2.27899 -10.985,3.275 -16.91001,4.092 -5.971,0.824 -12.074,0.83 -18.05101,0.04 -5.78898,-0.765 -11.96899,-2.08802 -17.33699,-4.42601 -10.619,-4.623 -20.136,-11.142 -27.6,-20.017 C 94.021005,193.98 88.356004,183.33701 85.89,171.9 c -4.899002,-22.721 1.246002,-47.457 17.118,-64.614 15.167,-16.396 37.975,-25.330997 60.24801,-22.712002 5.861,0.689003 11.525,1.573006 16.99799,3.848 5.229,2.173004 10.408,4.536003 15.203,7.566002 9.653,6.098 17.18201,15.08 23.01,24.795 6.49901,10.82399 8.449,22.939 9.24701,35.344 -23.93001,0 -47.85901,0 -71.78901,0 23.93,0 47.86001,0 71.78901,0"
         id="svg_5"
         inkscape:connector-curvature="0"
         style="fill:#ffffff" />
      <a
         xlink:href="monteverde.php"
         id="a3346">
        <path
           d="m 156.14,154.207 c -0.078,-51.395 -0.161,-102.79 -0.24001,-154.186 4.71001,25.91 9.42401,51.82 14.13301,77.730999 2.35199,12.926003 4.70099,25.853001 7.053,38.781001 0.56199,3.091 1.125,6.181 1.686,9.274 0.28299,1.544 0.562,3.09099 0.844,4.635 0.34401,1.885 0.02,1.94901 -1.23799,3.209 -4.52701,4.528 -9.05701,9.05699 -13.586,13.58499 -2.96301,2.96301 -5.92601,5.92801 -8.89002,8.89101 0.079,-0.64101 0.15801,-1.27899 0.23801,-1.92"
           id="svg_7"
           inkscape:connector-curvature="0"
           style="fill:#010101" />
      </a>
      <a
         xlink:href="memm.php"
         id="a3349">
        <path
           d="m 156.14,154.207 c 52.03999,0.64101 104.07799,1.28101 156.11699,1.92 -25.95899,4.664 -51.918,9.328 -77.87899,13.992 -12.95098,2.32601 -25.89999,4.65399 -38.85398,6.98 -3.09801,0.556 -6.19301,1.11101 -9.291,1.668 -1.54801,0.27701 -3.097,0.558 -4.64501,0.836 -1.891,0.33999 -1.96499,0.01 -3.23601,-1.248 -4.56599,-4.521 -9.13499,-9.045 -13.70099,-13.564 -1.955,-1.936 -3.908,-3.87199 -5.863,-5.80901 -0.845,-0.832 -1.881,-1.63699 -2.56301,-2.60899 -0.446,-0.633 -0.173,-1.466 -0.085,-2.166"
           id="svg_9"
           inkscape:connector-curvature="0"
           style="fill:#010101" />
      </a>
      <a
         xlink:href="index.php"
         id="a3352">
        <path
           d="m 156.14,154.207 c -52.039,0.64101 -104.079999,1.28301 -156.119,1.92 25.923,-4.722 51.846001,-9.444 77.768993,-14.164 12.914993,-2.35401 25.830997,-4.705 38.745997,-7.058 3.05,-0.55499 6.1,-1.11099 9.149,-1.66699 1.525,-0.276 3.04999,-0.55501 4.575,-0.832 1.65101,-0.30201 1.67501,-0.24801 2.763,0.84599 4.556,4.556 9.112,9.11101 13.668,13.66701 3.069,3.069 6.14,6.13999 9.209,9.20799 0.081,-0.64101 0.16001,-1.27899 0.24001,-1.92"
           id="svg_11"
           inkscape:connector-curvature="0"
           style="fill:#010101" />
      </a>
      <a
         xlink:href="extremofilos.php"
         id="a3355">
        <path
           d="m 156.14,154.207 c -4.466,4.73 -8.93201,9.46201 -13.398,14.19299 -2.14399,2.27101 -4.28801,4.539 -6.431,6.81202 -1.03,1.09098 -2.06201,2.18299 -3.09201,3.27398 -1.34799,1.42801 -1.33299,1.43801 -0.94499,3.375 2.571,12.88101 5.14301,25.76201 7.71401,38.64401 5.14999,25.79999 10.29899,51.599 15.44999,77.396 0.154,0.776 0.30899,1.552 0.463,2.32401 0,-24.332 0,-48.664 0,-72.99601 0,-12.345 0,-24.68901 0,-37.035 0,-5.94 0,-11.88499 0,-17.824 -0.001,-5.984 -0.504,-12.21801 0.239,-18.163"
           id="svg_13"
           inkscape:connector-curvature="0"
           style="fill:#010101" />
      </a>
      <path
         d="m 179.677,130.91 c 8.08701,-7.604 16.17301,-15.209 24.261,-22.812 -6.06199,2.969 -12.123,5.939 -18.18499,8.908 -1.30901,0.641 -2.61602,1.281 -3.92402,1.922 -1.28498,0.629 -1.91198,0.671 -1.91198,2.111 0,3.69 0,7.381 0,11.07199 -0.08,-0.40199 -0.16001,-0.79999 -0.24001,-1.20099"
         id="svg_15"
         inkscape:connector-curvature="0"
         style="fill:#ffffff" />
      <path
         d="m 179.677,130.91 c 8.08701,-7.604 16.17301,-15.209 24.261,-22.812 -6.06199,2.969 -12.123,5.939 -18.18499,8.908 -1.30901,0.641 -2.61602,1.281 -3.92402,1.922 -1.28498,0.629 -1.91198,0.671 -1.91198,2.111 0,3.69 0,7.381 0,11.07199"
         stroke-miterlimit="10"
         id="svg_16"
         inkscape:connector-curvature="0"
         style="fill:none;stroke:#010101;stroke-width:0.2402;stroke-linecap:square;stroke-miterlimit:10" />
      <path
         d="m 179.677,130.91 c 8.08701,-7.604 16.17301,-15.209 24.261,-22.812 -3.356,6.709 -6.712,13.419 -10.067,20.126 -0.47101,0.94099 -1.123,3.253 -2.013,3.81801 -0.751,0.47799 -2.68699,0.068 -3.509,0.068 -1.81101,0 -3.621,0 -5.43401,0 -0.86699,0 -1.73399,0 -2.60399,0 -0.675,0 -0.54299,-0.74699 -0.634,-1.2"
         id="svg_17"
         inkscape:connector-curvature="0"
         style="fill:#010101" />
      <path
         d="m 179.677,130.91 c 8.08701,-7.604 16.17301,-15.209 24.261,-22.812 -3.03,6.059 -6.06199,12.119 -9.09201,18.178 -0.65399,1.308 -1.30999,2.617 -1.96399,3.925 -0.649,1.297 -0.697,1.90999 -2.15499,1.90999 -3.60302,0 -7.20601,0 -10.81,0"
         stroke-miterlimit="10"
         id="svg_18"
         inkscape:connector-curvature="0"
         style="fill:none;stroke:#010101;stroke-width:0.2402;stroke-linecap:square;stroke-miterlimit:10" />
      <path
         d="m 131.642,132.11 c -7.926,-8.004 -15.853,-16.009 -23.779,-24.013 2.987,5.972 5.973,11.942 8.96,17.915 0.667,1.335 1.335,2.671 2.003,4.00601 0.576,1.15199 0.667,2.09199 2.03,2.09199 3.595,0 7.191,0 10.786,0"
         id="svg_19"
         inkscape:connector-curvature="0"
         style="fill:#ffffff" />
      <path
         d="m 131.642,132.11 c -7.926,-8.004 -15.853,-16.009 -23.779,-24.013 4.003,8.004 8.006,16.008 12.009,24.013"
         stroke-miterlimit="10"
         id="svg_20"
         inkscape:connector-curvature="0"
         style="fill:none;stroke:#010101;stroke-width:0.2402;stroke-linecap:square;stroke-miterlimit:10" />
      <path
         d="m 131.642,132.11 c -7.926,-8.004 -15.853,-16.009 -23.779,-24.013 6.061,2.969 12.123,5.939 18.184,8.908 1.308,0.641 2.617,1.281 3.925,1.922 1.287,0.631 1.91499,0.666 1.88699,2.111 -0.073,3.691 -0.14499,7.382 -0.21699,11.072"
         id="svg_21"
         inkscape:connector-curvature="0"
         style="fill:#010101" />
      <path
         d="m 131.642,132.11 c -7.926,-8.004 -15.853,-16.009 -23.779,-24.013 8.006,3.923 16.012,7.843 24.019,11.766"
         stroke-miterlimit="10"
         id="svg_22"
         inkscape:connector-curvature="0"
         style="fill:none;stroke:#010101;stroke-width:0.2402;stroke-linecap:square;stroke-miterlimit:10" />
      <path
         d="m 131.642,179.90199 c -7.926,8.008 -15.853,16.012 -23.779,24.01799 4.255,-2.084 8.511,-4.17 12.768,-6.254 2.127,-1.04399 4.255,-2.08499 6.383,-3.12799 1.158,-0.567 5.00001,-1.66 4.93,-3.179 -0.062,-1.35499 0.65601,-11.336 -0.302,-11.457"
         id="svg_23"
         inkscape:connector-curvature="0"
         style="fill:#ffffff" />
      <path
         d="m 131.642,179.90199 c -7.926,8.008 -15.853,16.012 -23.779,24.01799 6.061,-2.96798 12.123,-5.93799 18.184,-8.90599 1.308,-0.642 2.617,-1.281 3.925,-1.923 1.283,-0.629 1.91,-0.672 1.91,-2.11 0,-3.692 0,-7.385 0,-11.07601"
         stroke-miterlimit="10"
         id="svg_24"
         inkscape:connector-curvature="0"
         style="fill:none;stroke:#010101;stroke-width:0.2402;stroke-linecap:square;stroke-miterlimit:10" />
      <path
         d="m 131.642,179.90199 c -7.926,8.008 -15.853,16.012 -23.779,24.01799 2.986,-5.972 5.973,-11.94299 8.96,-17.918 0.667,-1.336 1.335,-2.67099 2.003,-4.00599 0.576,-1.152 0.667,-2.094 2.03,-2.094 3.595,0 7.191,0 10.786,0"
         id="svg_25"
         inkscape:connector-curvature="0"
         style="fill:#010101" />
      <path
         d="m 131.642,179.90199 c -7.926,8.008 -15.853,16.012 -23.779,24.01799 4.003,-8.00599 8.006,-16.00999 12.009,-24.01799"
         stroke-miterlimit="10"
         id="svg_26"
         inkscape:connector-curvature="0"
         style="fill:none;stroke:#010101;stroke-width:0.2402;stroke-linecap:square;stroke-miterlimit:10" />
      <path
         d="m 179.677,179.90199 c 8.08701,8.008 16.17301,16.012 24.261,24.01799 -3.03,-6.06099 -6.06199,-12.11999 -9.09201,-18.18199 -0.65399,-1.30901 -1.30999,-2.616 -1.96399,-3.92599 -0.641,-1.278 -0.688,-1.91001 -2.13301,-1.91001 -3.68899,0 -7.37799,0 -11.07199,0"
         id="svg_27"
         inkscape:connector-curvature="0"
         style="fill:#ffffff" />
      <path
         d="m 179.677,179.90199 c 8.08701,8.008 16.17301,16.012 24.261,24.01799 -4.005,-8.00599 -8.009,-16.00999 -12.011,-24.01799"
         stroke-miterlimit="10"
         id="svg_28"
         inkscape:connector-curvature="0"
         style="fill:none;stroke:#010101;stroke-width:0.2402;stroke-linecap:square;stroke-miterlimit:10" />
      <path
         d="m 179.677,179.90199 c 8.08701,8.008 16.17301,16.012 24.261,24.01799 -6.06199,-2.96798 -12.123,-5.93799 -18.18499,-8.90599 -1.30901,-0.642 -2.61602,-1.281 -3.92402,-1.923 -1.28099,-0.627 -1.90599,-0.676 -1.93699,-2.11 -0.07,-3.69399 -0.142,-7.385 -0.215,-11.079"
         id="svg_29"
         inkscape:connector-curvature="0"
         style="fill:#010101" />
      <path
         d="m 179.677,179.90199 c 8.08701,8.008 16.17301,16.012 24.261,24.01799 -8.009,-3.92299 -16.013,-7.84298 -24.02099,-11.76599"
         stroke-miterlimit="10"
         id="svg_30"
         inkscape:connector-curvature="0"
         style="fill:none;stroke:#010101;stroke-width:0.2402;stroke-linecap:square;stroke-miterlimit:10" />
      <a
         xlink:href="extremofilos.php"
         id="a3374">
        <path
           d="m 155.89999,155.407 c 0,48.272 0,96.54699 0,144.81901 5.11699,-25.64102 10.23799,-51.28302 15.35399,-76.92402 2.56202,-12.82801 5.125,-25.65599 7.68502,-38.48599 0.29399,-1.47901 0.58999,-2.963 0.886,-4.44201 0.19198,-0.962 -1.45101,-2.048 -2.07801,-2.68699 -2.326,-2.373 -4.654,-4.748 -6.981,-7.121 -4.587,-4.67801 -9.173,-9.35701 -13.763,-14.03701 C 156.634,156.15601 156.267,155.78 155.9,155.407"
           id="svg_31"
           inkscape:connector-curvature="0"
           style="fill:#ffffaa" />
      </a>
      <a
         xlink:href="mem.php"
         id="a3377">
        <path
           d="m 155.89999,155.407 c 52.12101,0.239 104.23999,0.47799 156.357,0.72 -25.9,-4.703 -51.80301,-9.401 -77.705,-14.101 -12.93801,-2.349 -25.881,-4.69701 -38.82,-7.046 -2.984,-0.542 -5.968,-1.084 -8.949,-1.624 -1.492,-0.27099 -2.982,-0.542 -4.478,-0.81199 -1.599,-0.291 -2.167,-0.64101 -3.313,0.46399 -4.56,4.42601 -9.121,8.848 -13.68199,13.272 -3.137,3.043 -6.271,6.087 -9.41001,9.127"
           id="svg_32"
           inkscape:connector-curvature="0"
           style="fill:#ffffaa" />
      </a>
      <a
         xlink:href="index.php"
         id="a3380">
        <path
           d="m 156.38,155.407 c -52.11999,0.239 -104.23899,0.47799 -156.35899,0.72 25.923,4.67599 51.845998,9.35 77.768999,14.02099 12.915001,2.32801 25.831001,4.65801 38.746001,6.98601 3.05,0.551 6.1,1.09999 9.149,1.651 1.525,0.27401 3.05001,0.55001 4.575,0.823 1.63699,0.295 1.658,0.25701 2.73601,-0.821 4.52499,-4.528 9.05398,-9.054 13.58198,-13.58 3.26799,-3.26601 6.536,-6.53101 9.802,-9.8"
           id="svg_33"
           inkscape:connector-curvature="0"
           style="fill:#ffffaa" />
      </a>
      <a
         xlink:href="monteverde.php"
         id="a3383">
        <path
           d="m 155.89999,155.407 c 0,-51.796 0,-103.591009 0,-155.386 -4.71,25.91 -9.423,51.82 -14.134,77.730999 -2.35001,12.926003 -4.702,25.853001 -7.052,38.781001 -0.562,3.091 -1.12399,6.181 -1.68601,9.274 -0.28099,1.544 -0.56199,3.09099 -0.84399,4.635 -0.345,1.901 -0.005,1.957 1.283,3.207 4.60599,4.468 9.21399,8.935 13.82,13.40599 2.87201,2.78401 5.74101,5.569 8.613,8.35201"
           id="svg_34"
           inkscape:connector-curvature="0"
           style="fill:#ffffaa" />
      </a>
      <text
         xml:space="preserve"
         style="font-style:normal;font-weight:normal;font-size:40px;line-height:125%;font-family:sans-serif;letter-spacing:0px;word-spacing:0px;fill:#000000;fill-opacity:1;stroke:none;stroke-width:1px;stroke-linecap:butt;stroke-linejoin:miter;stroke-opacity:1"
         x="-207.99799"
         y="-16.831844"
         id="text3497"
         sodipodi:linespacing="125%"
         transform="matrix(-0.02052013,-0.99978944,0.99978944,-0.02052013,0,0)"><tspan
           sodipodi:role="line"
           id="tspan3499"
           x="-207.99799"
           y="-16.831844">inicio</tspan></text>
      <text
         xml:space="preserve"
         style="font-style:normal;font-weight:normal;font-size:40px;line-height:125%;font-family:sans-serif;letter-spacing:0px;word-spacing:0px;fill:#000000;fill-opacity:1;stroke:none;stroke-width:1px;stroke-linecap:butt;stroke-linejoin:miter;stroke-opacity:1"
         x="35.622883"
         y="-11.17797"
         id="text3501"
         sodipodi:linespacing="125%"><tspan
           sodipodi:role="line"
           id="tspan3503"
           x="35.622883"
           y="-11.17797">monteverde</tspan></text>
      <text
         xml:space="preserve"
         style="font-style:normal;font-weight:normal;font-size:40px;line-height:125%;font-family:sans-serif;letter-spacing:0px;word-spacing:0px;fill:#000000;fill-opacity:1;stroke:none;stroke-width:1px;stroke-linecap:butt;stroke-linejoin:miter;stroke-opacity:1"
         x="87.712639"
         y="-329.91467"
         id="text3505"
         sodipodi:linespacing="125%"
         transform="matrix(-0.01186893,0.99992956,-0.99992956,-0.01186893,0,0)"><tspan
           sodipodi:role="line"
           id="tspan3507"
           x="87.712639"
           y="-329.91467">juegos</tspan></text>
      <text
         xml:space="preserve"
         style="font-style:normal;font-weight:normal;font-size:40px;line-height:125%;font-family:sans-serif;letter-spacing:0px;word-spacing:0px;fill:#000000;fill-opacity:1;stroke:none;stroke-width:1px;stroke-linecap:butt;stroke-linejoin:miter;stroke-opacity:1"
         x="-280.1517"
         y="-314.62039"
         id="text3509"
         sodipodi:linespacing="125%"
         transform="matrix(-0.99998626,0.0052424,-0.0052424,-0.99998626,0,0)"><tspan
           sodipodi:role="line"
           id="tspan3511"
           x="-280.1517"
           y="-314.62039">extremofilos</tspan></text>
    </g>
  </g>
</svg>
